Genre:Action | Adventure | Thriller
Language:English
IMDb:http://www.imdb.com/title/tt1320253/
Source Video:TS.rus.Thanks
Audio Source:PAL DVDR Imagine.Thanks
.............................................
General
Complete name : The Expendables TS V2 XviD FEEL-FREE
Format : AVI
Format/Info : Audio Video Interleave
File size : 1.46 GiB
Duration : 1h 34mn
Overall bit rate : 2 219 Kbps
..............................................
Video
ID : 0
Format : MPEG-4 Visual
Format profile : AdvancedSimple@L5
Format settings, BVOP : Yes
Format settings, QPel : No
Format settings, GMC : No warppoints
Format settings, Matrix : Default (H.263)
Muxing mode : Packed bitstream
Codec ID : XVID
Codec ID/Hint : XviD
Duration : 1h 34mn
Bit rate : 2 080 Kbps
Width : 688 pixels
Height : 288 pixels
Display aspect ratio : 2.35:1
Frame rate : 25.000 fps
Resolution : 24 bits
Colorimetry : 4:2:0
Scan type : Progressive
Bits/(Pixel*Frame) : 0.420
Stream size : 1.37 GiB (94%)
Writing library : XviD 1.3.0.dev55
................................................
Audio
ID : 1
Format : MPEG Audio
Format version : Version 1
Format profile : Layer 3
Codec ID : 55
Codec ID/Hint : MP3
Duration : 1h 34mn
Bit rate mode : Variable
Bit rate : 126 Kbps
Nominal bit rate : 128 Kbps
Channel(s) : 2 channels
Sampling rate : 48.0 KHz
Resolution : 16 bits
Video delay : 72ms
Stream size : 85.1 MiB (6%)
Alignment : Split accross interleaves
Interleave, duration : 24 ms (0.60 video frame)
Interleave, preload duration : 347 ms
Writing library : LAME3.90.
.................................................
Plot:
A team of mercenaries head to South America on a mission to overthrow a dictator
..........................................
Screenshots:
 
http://postimg.com/image/21000/20057.jpg
 
http://postimg.com/image/21000/20058.jpg

..................................................
 
http://thepiratebay.org/user/hiest

..................................................